<svg width="842" height="842" viewBox="0 0 842 842" fill="none" xmlns="http://www.w3.org/2000/svg">
<rect width="842" height="842" rx="168" fill="#121B23"/>
<path d="M404 643.71L404 693.21C404 698.733 408.295 704.455 413.638 705.852C428.675 709.786 459.189 716.724 490 716.724C515.394 716.987 638 719.993 638 611.71C638 519.002 633.94 487.378 693.954 484.441C699.471 484.171 704 479.733 704 474.211L704 410.21C704 404.688 699.459 400.252 693.944 399.951C627.525 396.33 638 354.721 638 271.21C638 179.637 554.063 169.86 500.645 158.043C494.225 156.623 488 161.457 488 168.032L488 213.845C488 218.362 491.066 222.295 495.378 223.644C556.957 242.91 550 278.195 550 369.21C550 399.367 572.712 429.051 622.279 437.548C624.691 437.961 626.5 440.028 626.5 442.475C626.5 444.909 624.707 446.971 622.308 447.386C571.796 456.123 550 482.192 550 518.211C550 611.82 559.322 646.555 490 647.201C452.214 647.201 426.329 640.948 413.442 636.956C408.166 635.322 404 638.188 404 643.71Z" fill="#526474"/>
<path d="M437 199.071V149.571C437 144.048 432.705 138.327 427.362 136.929C412.325 132.996 381.811 126.058 351 126.058C325.606 125.794 203 122.788 203 231.071C203 323.779 207.06 355.403 147.046 358.341C141.529 358.611 137 363.048 137 368.571V432.571C137 438.094 141.541 442.529 147.056 442.83C213.475 446.451 203 488.061 203 571.571C203 663.144 286.937 672.921 340.355 684.738C346.775 686.158 353 681.324 353 674.749V628.937C353 624.419 349.934 620.486 345.622 619.137C284.043 599.872 291 564.586 291 473.571C291 443.414 268.288 413.73 218.721 405.233C216.309 404.82 214.5 402.753 214.5 400.307C214.5 397.872 216.293 395.81 218.692 395.396C269.204 386.658 291 360.59 291 324.571C291 230.961 281.678 196.227 351 195.58C388.786 195.58 414.671 201.833 427.558 205.825C432.834 207.459 437 204.594 437 199.071Z" fill="white"/>
</svg>
